<mxfile host="2df8fcd2-2564-4e26-ac9d-1616ba7ce374" modified="2020-07-26T12:53:41.217Z" agent="5.0 (Windows NT 10.0; Win64; x64) AppleWebKit/537.36 (KHTML, like Gecko) Code/1.47.2 Chrome/78.0.3904.130 Electron/7.3.2 Safari/537.36" etag="xCsq_OKzGyUdyUG64H7x" version="13.1.3">
    <diagram id="6hGFLwfOUW9BJ-s0fimq" name="Page-1">
        <mxGraphModel dx="439" dy="204" grid="1" gridSize="10" guides="1" tooltips="1" connect="1" arrows="1" fold="1" page="0" pageScale="1" pageWidth="827" pageHeight="1169" math="1" shadow="0">
            <root>
                <mxCell id="0"/>
                <mxCell id="1" parent="0"/>
                <mxCell id="2" value="&lt;span class=&quot;md&quot;&gt;&lt;span class=&quot;MathJax&quot; id=&quot;MathJax-Element-47-Frame&quot; tabindex=&quot;0&quot; style=&quot;position: relative&quot;&gt;&lt;nobr style=&quot;font-size: 17px&quot;&gt;&lt;span class=&quot;math&quot; id=&quot;MathJax-Span-510&quot; style=&quot;width: 27.919em ; display: inline-block&quot;&gt;&lt;span style=&quot;display: inline-block ; position: relative ; width: 23.229em ; height: 0px&quot;&gt;&lt;span style=&quot;position: absolute ; clip: rect(1.252em , 1023.19em , 2.698em , -1000em) ; top: -2.292em ; left: 0em&quot;&gt;&lt;span class=&quot;mrow&quot; id=&quot;MathJax-Span-511&quot;&gt;&lt;span class=&quot;msubsup&quot; id=&quot;MathJax-Span-512&quot;&gt;&lt;span style=&quot;display: inline-block ; position: relative ; width: 0.79em ; height: 0px&quot;&gt;&lt;span style=&quot;position: absolute ; clip: rect(3.228em , 1000.33em , 4.178em , -1000em) ; top: -4.01em ; left: 0em&quot;&gt;&lt;span class=&quot;mi&quot; id=&quot;MathJax-Span-513&quot; style=&quot;font-family: &amp;#34;mathjax_math&amp;#34; ; font-style: italic&quot;&gt;t&lt;/span&gt;&lt;span style=&quot;display: inline-block ; width: 0px ; height: 4.01em&quot;&gt;&lt;/span&gt;&lt;/span&gt;&lt;span style=&quot;position: absolute ; top: -4.423em ; left: 0.361em&quot;&gt;&lt;span class=&quot;mn&quot; id=&quot;MathJax-Span-514&quot; style=&quot;font-family: &amp;#34;mathjax_main&amp;#34;&quot;&gt;2&lt;/span&gt;&lt;span style=&quot;display: inline-block ; width: 0px ; height: 4.01em&quot;&gt;&lt;/span&gt;&lt;/span&gt;&lt;/span&gt;&lt;/span&gt;&lt;span class=&quot;texatom&quot; id=&quot;MathJax-Span-515&quot;&gt;&lt;span class=&quot;mrow&quot; id=&quot;MathJax-Span-516&quot;&gt;&lt;span class=&quot;mi&quot; id=&quot;MathJax-Span-517&quot; style=&quot;font-family: &amp;#34;mathjax_main&amp;#34; ; font-weight: bold&quot;&gt;b&lt;/span&gt;&lt;/span&gt;&lt;/span&gt;&lt;span class=&quot;mo&quot; id=&quot;MathJax-Span-518&quot; style=&quot;font-family: &amp;#34;mathjax_main&amp;#34; ; padding-left: 0.222em&quot;&gt;⋅&lt;/span&gt;&lt;span class=&quot;texatom&quot; id=&quot;MathJax-Span-519&quot; style=&quot;padding-left: 0.222em&quot;&gt;&lt;span class=&quot;mrow&quot; id=&quot;MathJax-Span-520&quot;&gt;&lt;span class=&quot;mi&quot; id=&quot;MathJax-Span-521&quot; style=&quot;font-family: &amp;#34;mathjax_main&amp;#34; ; font-weight: bold&quot;&gt;b&lt;/span&gt;&lt;/span&gt;&lt;/span&gt;&lt;span class=&quot;mo&quot; id=&quot;MathJax-Span-522&quot; style=&quot;font-family: &amp;#34;mathjax_main&amp;#34; ; padding-left: 0.222em&quot;&gt;+&lt;/span&gt;&lt;span class=&quot;mn&quot; id=&quot;MathJax-Span-523&quot; style=&quot;font-family: &amp;#34;mathjax_main&amp;#34; ; padding-left: 0.222em&quot;&gt;2&lt;/span&gt;&lt;span class=&quot;mi&quot; id=&quot;MathJax-Span-524&quot; style=&quot;font-family: &amp;#34;mathjax_math&amp;#34; ; font-style: italic&quot;&gt;t&lt;/span&gt;&lt;span class=&quot;texatom&quot; id=&quot;MathJax-Span-525&quot;&gt;&lt;span class=&quot;mrow&quot; id=&quot;MathJax-Span-526&quot;&gt;&lt;span class=&quot;mi&quot; id=&quot;MathJax-Span-527&quot; style=&quot;font-family: &amp;#34;mathjax_main&amp;#34; ; font-weight: bold&quot;&gt;b&lt;/span&gt;&lt;/span&gt;&lt;/span&gt;&lt;span class=&quot;mo&quot; id=&quot;MathJax-Span-528&quot; style=&quot;font-family: &amp;#34;mathjax_main&amp;#34; ; padding-left: 0.222em&quot;&gt;⋅&lt;/span&gt;&lt;span class=&quot;mo&quot; id=&quot;MathJax-Span-529&quot; style=&quot;font-family: &amp;#34;mathjax_main&amp;#34; ; padding-left: 0.222em&quot;&gt;(&lt;b&gt;a&lt;/b&gt;&lt;/span&gt;&lt;span class=&quot;mo&quot; id=&quot;MathJax-Span-533&quot; style=&quot;font-family: &amp;#34;mathjax_main&amp;#34; ; padding-left: 0.222em&quot;&gt;−&lt;b&gt;c&lt;/b&gt;&lt;/span&gt;&lt;span class=&quot;mo&quot; id=&quot;MathJax-Span-537&quot; style=&quot;font-family: &amp;#34;mathjax_main&amp;#34;&quot;&gt;)&lt;/span&gt;&lt;span class=&quot;mo&quot; id=&quot;MathJax-Span-538&quot; style=&quot;font-family: &amp;#34;mathjax_main&amp;#34; ; padding-left: 0.222em&quot;&gt;+&lt;/span&gt;&lt;span class=&quot;mo&quot; id=&quot;MathJax-Span-539&quot; style=&quot;font-family: &amp;#34;mathjax_main&amp;#34; ; padding-left: 0.222em&quot;&gt;(&lt;b&gt;a&lt;/b&gt;&lt;/span&gt;&lt;span class=&quot;mo&quot; id=&quot;MathJax-Span-543&quot; style=&quot;font-family: &amp;#34;mathjax_main&amp;#34; ; padding-left: 0.222em&quot;&gt;−&lt;b&gt;c&lt;/b&gt;&lt;/span&gt;&lt;span class=&quot;mo&quot; id=&quot;MathJax-Span-547&quot; style=&quot;font-family: &amp;#34;mathjax_main&amp;#34;&quot;&gt;)&lt;/span&gt;&lt;span class=&quot;mo&quot; id=&quot;MathJax-Span-548&quot; style=&quot;font-family: &amp;#34;mathjax_main&amp;#34; ; padding-left: 0.222em&quot;&gt;⋅&lt;/span&gt;&lt;span class=&quot;mo&quot; id=&quot;MathJax-Span-549&quot; style=&quot;font-family: &amp;#34;mathjax_main&amp;#34; ; padding-left: 0.222em&quot;&gt;(&lt;b&gt;a&lt;/b&gt;&lt;/span&gt;&lt;span class=&quot;mo&quot; id=&quot;MathJax-Span-553&quot; style=&quot;font-family: &amp;#34;mathjax_main&amp;#34; ; padding-left: 0.222em&quot;&gt;−&lt;b&gt;c&lt;/b&gt;&lt;/span&gt;&lt;span class=&quot;mo&quot; id=&quot;MathJax-Span-557&quot; style=&quot;font-family: &amp;#34;mathjax_main&amp;#34;&quot;&gt;)&lt;/span&gt;&lt;span class=&quot;mo&quot; id=&quot;MathJax-Span-558&quot; style=&quot;font-family: &amp;#34;mathjax_main&amp;#34; ; padding-left: 0.222em&quot;&gt;−&lt;/span&gt;&lt;span class=&quot;msubsup&quot; id=&quot;MathJax-Span-559&quot; style=&quot;padding-left: 0.222em&quot;&gt;&lt;span style=&quot;display: inline-block ; position: relative ; width: 0.88em ; height: 0px&quot;&gt;&lt;span style=&quot;position: absolute ; clip: rect(3.412em , 1000.43em , 4.178em , -1000em) ; top: -4.01em ; left: 0em&quot;&gt;&lt;span class=&quot;mi&quot; id=&quot;MathJax-Span-560&quot; style=&quot;font-family: &amp;#34;mathjax_math&amp;#34; ; font-style: italic&quot;&gt;r&lt;/span&gt;&lt;span style=&quot;display: inline-block ; width: 0px ; height: 4.01em&quot;&gt;&lt;/span&gt;&lt;/span&gt;&lt;span style=&quot;position: absolute ; top: -4.423em ; left: 0.451em&quot;&gt;&lt;span class=&quot;mn&quot; id=&quot;MathJax-Span-561&quot; style=&quot;font-family: &amp;#34;mathjax_main&amp;#34;&quot;&gt;2&lt;/span&gt;&lt;span style=&quot;display: inline-block ; width: 0px ; height: 4.01em&quot;&gt;&lt;/span&gt;&lt;/span&gt;&lt;/span&gt;&lt;/span&gt;&lt;span class=&quot;mo&quot; id=&quot;MathJax-Span-562&quot; style=&quot;font-family: &amp;#34;mathjax_main&amp;#34; ; padding-left: 0.278em&quot;&gt;=&lt;/span&gt;&lt;span class=&quot;mn&quot; id=&quot;MathJax-Span-563&quot; style=&quot;font-family: &amp;#34;mathjax_main&amp;#34; ; padding-left: 0.278em&quot;&gt;0&lt;/span&gt;&lt;/span&gt;&lt;span style=&quot;display: inline-block ; width: 0px ; height: 2.292em&quot;&gt;&lt;/span&gt;&lt;/span&gt;&lt;/span&gt;&lt;span style=&quot;display: inline-block ; overflow: hidden ; vertical-align: -0.362em ; border-left: 0px solid ; width: 0px ; height: 1.486em&quot;&gt;&lt;/span&gt;&lt;/span&gt;&lt;/nobr&gt;&lt;/span&gt;&lt;/span&gt;" style="text;html=1;strokeColor=none;fillColor=none;align=left;verticalAlign=middle;whiteSpace=wrap;rounded=0;" parent="1" vertex="1">
                    <mxGeometry x="240" y="310" width="400" height="20" as="geometry"/>
                </mxCell>
                <mxCell id="10" style="edgeStyle=orthogonalEdgeStyle;rounded=0;orthogonalLoop=1;jettySize=auto;html=1;exitX=0.5;exitY=1;exitDx=0;exitDy=0;entryX=0.488;entryY=1;entryDx=0;entryDy=0;entryPerimeter=0;" parent="1" source="3" target="5" edge="1">
                    <mxGeometry relative="1" as="geometry"/>
                </mxCell>
                <mxCell id="3" value="" style="shape=partialRectangle;whiteSpace=wrap;html=1;bottom=1;right=1;left=1;top=0;fillColor=none;routingCenterX=-0.5;rotation=-180;" parent="1" vertex="1">
                    <mxGeometry x="240" y="300" width="40" height="10" as="geometry"/>
                </mxCell>
                <mxCell id="5" value="Inner product" style="text;html=1;align=center;verticalAlign=middle;resizable=0;points=[];autosize=1;" parent="1" vertex="1">
                    <mxGeometry x="315" y="230" width="90" height="20" as="geometry"/>
                </mxCell>
                <mxCell id="19" style="edgeStyle=orthogonalEdgeStyle;rounded=0;orthogonalLoop=1;jettySize=auto;html=1;" parent="1" source="8" target="5" edge="1">
                    <mxGeometry relative="1" as="geometry"/>
                </mxCell>
                <mxCell id="8" value="" style="shape=partialRectangle;whiteSpace=wrap;html=1;bottom=1;right=1;left=1;top=0;fillColor=none;routingCenterX=-0.5;rotation=-180;" parent="1" vertex="1">
                    <mxGeometry x="300" y="300" width="70" height="10" as="geometry"/>
                </mxCell>
                <mxCell id="15" style="edgeStyle=orthogonalEdgeStyle;rounded=0;orthogonalLoop=1;jettySize=auto;html=1;entryX=0.47;entryY=0.95;entryDx=0;entryDy=0;entryPerimeter=0;exitX=0;exitY=1;exitDx=0;exitDy=0;" parent="1" source="11" target="14" edge="1">
                    <mxGeometry relative="1" as="geometry"/>
                </mxCell>
                <mxCell id="20" style="edgeStyle=orthogonalEdgeStyle;rounded=0;orthogonalLoop=1;jettySize=auto;html=1;" parent="1" source="11" target="5" edge="1">
                    <mxGeometry relative="1" as="geometry"/>
                </mxCell>
                <mxCell id="11" value="" style="shape=partialRectangle;whiteSpace=wrap;html=1;bottom=1;right=1;left=1;top=0;fillColor=none;routingCenterX=-0.5;rotation=-180;" parent="1" vertex="1">
                    <mxGeometry x="390" y="300" width="90" height="10" as="geometry"/>
                </mxCell>
                <mxCell id="14" value="Length squared" style="text;html=1;align=center;verticalAlign=middle;resizable=0;points=[];autosize=1;" parent="1" vertex="1">
                    <mxGeometry x="433" y="230" width="100" height="20" as="geometry"/>
                </mxCell>
                <mxCell id="23" value="&lt;div&gt;&lt;span&gt;a:&lt;/span&gt;&lt;span&gt;&amp;nbsp;ray origin (v3)&lt;/span&gt;&lt;/div&gt;" style="text;html=1;align=left;verticalAlign=middle;resizable=0;points=[];autosize=1;" parent="1" vertex="1">
                    <mxGeometry x="240" y="340" width="100" height="20" as="geometry"/>
                </mxCell>
                <mxCell id="26" value="&lt;div&gt;&lt;span&gt;t: lerp multiplier to find point on ray (real) - unknown variable&lt;/span&gt;&lt;/div&gt;" style="text;html=1;align=left;verticalAlign=middle;resizable=0;points=[];autosize=1;" parent="1" vertex="1">
                    <mxGeometry x="240" y="420" width="330" height="20" as="geometry"/>
                </mxCell>
                <mxCell id="27" value="&lt;div&gt;&lt;span&gt;c: sphere center (v3)&lt;/span&gt;&lt;/div&gt;" style="text;html=1;align=left;verticalAlign=middle;resizable=0;points=[];autosize=1;" parent="1" vertex="1">
                    <mxGeometry x="240" y="380" width="130" height="20" as="geometry"/>
                </mxCell>
                <mxCell id="28" value="&lt;div&gt;&lt;span&gt;r: sphere radius (real)&lt;/span&gt;&lt;/div&gt;" style="text;html=1;align=left;verticalAlign=middle;resizable=0;points=[];autosize=1;" parent="1" vertex="1">
                    <mxGeometry x="240" y="400" width="130" height="20" as="geometry"/>
                </mxCell>
                <mxCell id="29" value="&lt;div&gt;&lt;span&gt;b: ray direction (unit vector)&lt;/span&gt;&lt;/div&gt;" style="text;html=1;align=left;verticalAlign=middle;resizable=0;points=[];autosize=1;" parent="1" vertex="1">
                    <mxGeometry x="240" y="360" width="160" height="20" as="geometry"/>
                </mxCell>
                <mxCell id="30" value="&lt;font style=&quot;font-size: 16px&quot;&gt;&lt;b&gt;Check if a given point on ray hits the sphere&lt;/b&gt;&lt;/font&gt;" style="text;html=1;align=left;verticalAlign=middle;resizable=0;points=[];autosize=1;" vertex="1" parent="1">
                    <mxGeometry x="240" y="200" width="350" height="20" as="geometry"/>
                </mxCell>
                <mxCell id="31" value="&lt;span class=&quot;md&quot;&gt;&lt;span class=&quot;MathJax&quot; id=&quot;MathJax-Element-47-Frame&quot; tabindex=&quot;0&quot; style=&quot;position: relative&quot;&gt;&lt;nobr style=&quot;font-size: 26px&quot;&gt;&lt;span class=&quot;math&quot; id=&quot;MathJax-Span-510&quot; style=&quot;width: 27.919em ; display: inline-block&quot;&gt;&lt;span style=&quot;display: inline-block ; position: relative ; width: 23.229em ; height: 0px&quot;&gt;&lt;span style=&quot;position: absolute ; clip: rect(1.252em , 1023.19em , 2.698em , -1000em) ; top: -2.292em ; left: 0em&quot;&gt;&lt;span class=&quot;mrow&quot; id=&quot;MathJax-Span-511&quot;&gt;&lt;span class=&quot;mo&quot; style=&quot;padding-left: 0.278em&quot;&gt;&lt;font face=&quot;mathjax_math&quot; style=&quot;font-size: 26px&quot;&gt;ax² + bx + c&lt;/font&gt;&lt;/span&gt;&lt;span class=&quot;mo&quot; style=&quot;font-family: &amp;#34;mathjax_main&amp;#34; ; padding-left: 0.278em&quot;&gt;=&lt;/span&gt;&lt;span class=&quot;mn&quot; id=&quot;MathJax-Span-563&quot; style=&quot;font-family: &amp;#34;mathjax_main&amp;#34; ; padding-left: 0.278em&quot;&gt;0&lt;/span&gt;&lt;/span&gt;&lt;span style=&quot;display: inline-block ; width: 0px ; height: 2.292em&quot;&gt;&lt;/span&gt;&lt;/span&gt;&lt;/span&gt;&lt;span style=&quot;display: inline-block ; overflow: hidden ; vertical-align: -0.362em ; border-left: 0px solid ; width: 0px ; height: 1.486em&quot;&gt;&lt;/span&gt;&lt;/span&gt;&lt;/nobr&gt;&lt;/span&gt;&lt;/span&gt;" style="text;html=1;strokeColor=none;fillColor=none;align=left;verticalAlign=middle;whiteSpace=wrap;rounded=0;" vertex="1" parent="1">
                    <mxGeometry x="240" y="595" width="190" height="20" as="geometry"/>
                </mxCell>
                <mxCell id="32" value="&lt;!--StartFragment--&gt;&lt;span class=&quot;msubsup&quot; id=&quot;MathJax-Span-512&quot; style=&quot;color: rgb(240, 240, 240); font-family: Helvetica; font-size: 17px; font-style: normal; font-variant-ligatures: normal; font-variant-caps: normal; font-weight: 400; letter-spacing: normal; orphans: 2; text-align: left; text-indent: 0px; text-transform: none; widows: 2; word-spacing: 0px; -webkit-text-stroke-width: 0px; background-color: rgb(42, 42, 42); text-decoration-style: initial; text-decoration-color: initial;&quot;&gt;&lt;span style=&quot;display: inline-block; position: relative; width: 0.79em; height: 0px;&quot;&gt;&lt;span style=&quot;position: absolute; clip: rect(3.228em, 1000.33em, 4.178em, -1000em); top: -4.01em; left: 0em;&quot;&gt;&lt;span class=&quot;mi&quot; id=&quot;MathJax-Span-513&quot; style=&quot;font-family: mathjax_math; font-style: italic;&quot;&gt;t&lt;/span&gt;&lt;span style=&quot;display: inline-block; width: 0px; height: 4.01em;&quot;&gt;&lt;/span&gt;&lt;/span&gt;&lt;span style=&quot;position: absolute; top: -4.423em; left: 0.361em;&quot;&gt;&lt;span class=&quot;mn&quot; id=&quot;MathJax-Span-514&quot; style=&quot;font-family: mathjax_main;&quot;&gt;2&lt;/span&gt;&lt;span style=&quot;display: inline-block; width: 0px; height: 4.01em;&quot;&gt;&lt;/span&gt;&lt;/span&gt;&lt;/span&gt;&lt;/span&gt;&lt;span class=&quot;texatom&quot; id=&quot;MathJax-Span-515&quot; style=&quot;color: rgb(240, 240, 240); font-family: Helvetica; font-size: 17px; font-style: normal; font-variant-ligatures: normal; font-variant-caps: normal; font-weight: 400; letter-spacing: normal; orphans: 2; text-align: left; text-indent: 0px; text-transform: none; widows: 2; word-spacing: 0px; -webkit-text-stroke-width: 0px; background-color: rgb(42, 42, 42); text-decoration-style: initial; text-decoration-color: initial;&quot;&gt;&lt;span class=&quot;mrow&quot; id=&quot;MathJax-Span-516&quot;&gt;&lt;span class=&quot;mi&quot; id=&quot;MathJax-Span-517&quot; style=&quot;font-family: mathjax_main; font-weight: bold;&quot;&gt;b&lt;/span&gt;&lt;/span&gt;&lt;/span&gt;&lt;span class=&quot;mo&quot; id=&quot;MathJax-Span-518&quot; style=&quot;color: rgb(240, 240, 240); font-size: 17px; font-style: normal; font-variant-ligatures: normal; font-variant-caps: normal; font-weight: 400; letter-spacing: normal; orphans: 2; text-align: left; text-indent: 0px; text-transform: none; widows: 2; word-spacing: 0px; -webkit-text-stroke-width: 0px; background-color: rgb(42, 42, 42); text-decoration-style: initial; text-decoration-color: initial; font-family: mathjax_main; padding-left: 0.222em;&quot;&gt;⋅&lt;/span&gt;&lt;span class=&quot;texatom&quot; id=&quot;MathJax-Span-519&quot; style=&quot;color: rgb(240, 240, 240); font-family: Helvetica; font-size: 17px; font-style: normal; font-variant-ligatures: normal; font-variant-caps: normal; font-weight: 400; letter-spacing: normal; orphans: 2; text-align: left; text-indent: 0px; text-transform: none; widows: 2; word-spacing: 0px; -webkit-text-stroke-width: 0px; background-color: rgb(42, 42, 42); text-decoration-style: initial; text-decoration-color: initial; padding-left: 0.222em;&quot;&gt;&lt;span class=&quot;mrow&quot; id=&quot;MathJax-Span-520&quot;&gt;&lt;span class=&quot;mi&quot; id=&quot;MathJax-Span-521&quot; style=&quot;font-family: mathjax_main; font-weight: bold;&quot;&gt;b&lt;/span&gt;&lt;/span&gt;&lt;/span&gt;&lt;!--EndFragment--&gt;" style="text;whiteSpace=wrap;html=1;" vertex="1" parent="1">
                    <mxGeometry x="240" y="500" width="50" height="30" as="geometry"/>
                </mxCell>
                <mxCell id="34" style="edgeStyle=orthogonalEdgeStyle;rounded=0;orthogonalLoop=1;jettySize=auto;html=1;" edge="1" parent="1" source="33" target="32">
                    <mxGeometry relative="1" as="geometry"/>
                </mxCell>
                <mxCell id="33" value="" style="shape=partialRectangle;whiteSpace=wrap;html=1;bottom=1;right=1;left=1;top=0;fillColor=none;routingCenterX=-0.5;rotation=-180;" vertex="1" parent="1">
                    <mxGeometry x="245" y="585" width="40" height="10" as="geometry"/>
                </mxCell>
                <mxCell id="35" value="&lt;!--StartFragment--&gt;&lt;span class=&quot;mn&quot; id=&quot;MathJax-Span-523&quot; style=&quot;color: rgb(240, 240, 240); font-size: 17px; font-style: normal; font-variant-ligatures: normal; font-variant-caps: normal; font-weight: 400; letter-spacing: normal; orphans: 2; text-align: left; text-indent: 0px; text-transform: none; widows: 2; word-spacing: 0px; -webkit-text-stroke-width: 0px; background-color: rgb(42, 42, 42); text-decoration-style: initial; text-decoration-color: initial; font-family: mathjax_main; padding-left: 0.222em;&quot;&gt;2&lt;/span&gt;&lt;span class=&quot;mi&quot; id=&quot;MathJax-Span-524&quot; style=&quot;color: rgb(240, 240, 240); font-size: 17px; font-variant-ligatures: normal; font-variant-caps: normal; font-weight: 400; letter-spacing: normal; orphans: 2; text-align: left; text-indent: 0px; text-transform: none; widows: 2; word-spacing: 0px; -webkit-text-stroke-width: 0px; background-color: rgb(42, 42, 42); text-decoration-style: initial; text-decoration-color: initial; font-family: mathjax_math; font-style: italic;&quot;&gt;t&lt;/span&gt;&lt;span class=&quot;texatom&quot; id=&quot;MathJax-Span-525&quot; style=&quot;color: rgb(240, 240, 240); font-family: Helvetica; font-size: 17px; font-style: normal; font-variant-ligatures: normal; font-variant-caps: normal; font-weight: 400; letter-spacing: normal; orphans: 2; text-align: left; text-indent: 0px; text-transform: none; widows: 2; word-spacing: 0px; -webkit-text-stroke-width: 0px; background-color: rgb(42, 42, 42); text-decoration-style: initial; text-decoration-color: initial;&quot;&gt;&lt;span class=&quot;mrow&quot; id=&quot;MathJax-Span-526&quot;&gt;&lt;span class=&quot;mi&quot; id=&quot;MathJax-Span-527&quot; style=&quot;font-family: mathjax_main; font-weight: bold;&quot;&gt;b&lt;/span&gt;&lt;/span&gt;&lt;/span&gt;&lt;span class=&quot;mo&quot; id=&quot;MathJax-Span-528&quot; style=&quot;color: rgb(240, 240, 240); font-size: 17px; font-style: normal; font-variant-ligatures: normal; font-variant-caps: normal; font-weight: 400; letter-spacing: normal; orphans: 2; text-align: left; text-indent: 0px; text-transform: none; widows: 2; word-spacing: 0px; -webkit-text-stroke-width: 0px; background-color: rgb(42, 42, 42); text-decoration-style: initial; text-decoration-color: initial; font-family: mathjax_main; padding-left: 0.222em;&quot;&gt;⋅&lt;/span&gt;&lt;span class=&quot;mo&quot; id=&quot;MathJax-Span-529&quot; style=&quot;color: rgb(240, 240, 240); font-size: 17px; font-style: normal; font-variant-ligatures: normal; font-variant-caps: normal; font-weight: 400; letter-spacing: normal; orphans: 2; text-align: left; text-indent: 0px; text-transform: none; widows: 2; word-spacing: 0px; -webkit-text-stroke-width: 0px; background-color: rgb(42, 42, 42); text-decoration-style: initial; text-decoration-color: initial; font-family: mathjax_main; padding-left: 0.222em;&quot;&gt;(&lt;b&gt;a&lt;/b&gt;&lt;/span&gt;&lt;span class=&quot;mo&quot; id=&quot;MathJax-Span-533&quot; style=&quot;color: rgb(240, 240, 240); font-size: 17px; font-style: normal; font-variant-ligatures: normal; font-variant-caps: normal; font-weight: 400; letter-spacing: normal; orphans: 2; text-align: left; text-indent: 0px; text-transform: none; widows: 2; word-spacing: 0px; -webkit-text-stroke-width: 0px; background-color: rgb(42, 42, 42); text-decoration-style: initial; text-decoration-color: initial; font-family: mathjax_main; padding-left: 0.222em;&quot;&gt;−&lt;b&gt;c&lt;/b&gt;&lt;/span&gt;&lt;span class=&quot;mo&quot; id=&quot;MathJax-Span-537&quot; style=&quot;color: rgb(240, 240, 240); font-size: 17px; font-style: normal; font-variant-ligatures: normal; font-variant-caps: normal; font-weight: 400; letter-spacing: normal; orphans: 2; text-align: left; text-indent: 0px; text-transform: none; widows: 2; word-spacing: 0px; -webkit-text-stroke-width: 0px; background-color: rgb(42, 42, 42); text-decoration-style: initial; text-decoration-color: initial; font-family: mathjax_main;&quot;&gt;)&lt;/span&gt;&lt;!--EndFragment--&gt;" style="text;whiteSpace=wrap;html=1;" vertex="1" parent="1">
                    <mxGeometry x="279" y="530" width="85" height="30" as="geometry"/>
                </mxCell>
                <mxCell id="39" style="edgeStyle=orthogonalEdgeStyle;rounded=0;orthogonalLoop=1;jettySize=auto;html=1;" edge="1" parent="1" source="38" target="35">
                    <mxGeometry relative="1" as="geometry"/>
                </mxCell>
                <mxCell id="38" value="" style="shape=partialRectangle;whiteSpace=wrap;html=1;bottom=1;right=1;left=1;top=0;fillColor=none;routingCenterX=-0.5;rotation=-180;" vertex="1" parent="1">
                    <mxGeometry x="300" y="585" width="40" height="10" as="geometry"/>
                </mxCell>
                <mxCell id="42" style="edgeStyle=orthogonalEdgeStyle;rounded=0;orthogonalLoop=1;jettySize=auto;html=1;entryX=0.5;entryY=1;entryDx=0;entryDy=0;" edge="1" parent="1" source="41" target="45">
                    <mxGeometry relative="1" as="geometry">
                        <mxPoint x="435" y="530" as="targetPoint"/>
                    </mxGeometry>
                </mxCell>
                <mxCell id="41" value="" style="shape=partialRectangle;whiteSpace=wrap;html=1;bottom=1;right=1;left=1;top=0;fillColor=none;routingCenterX=-0.5;rotation=-180;" vertex="1" parent="1">
                    <mxGeometry x="355" y="585" width="25" height="10" as="geometry"/>
                </mxCell>
                <mxCell id="45" value="&lt;!--StartFragment--&gt;&lt;span class=&quot;mo&quot; id=&quot;MathJax-Span-539&quot; style=&quot;color: rgb(240, 240, 240); font-size: 17px; font-style: normal; font-variant-ligatures: normal; font-variant-caps: normal; font-weight: 400; letter-spacing: normal; orphans: 2; text-align: left; text-indent: 0px; text-transform: none; widows: 2; word-spacing: 0px; -webkit-text-stroke-width: 0px; background-color: rgb(42, 42, 42); text-decoration-style: initial; text-decoration-color: initial; font-family: mathjax_main; padding-left: 0.222em;&quot;&gt;(&lt;b&gt;a&lt;/b&gt;&lt;/span&gt;&lt;span class=&quot;mo&quot; id=&quot;MathJax-Span-543&quot; style=&quot;color: rgb(240, 240, 240); font-size: 17px; font-style: normal; font-variant-ligatures: normal; font-variant-caps: normal; font-weight: 400; letter-spacing: normal; orphans: 2; text-align: left; text-indent: 0px; text-transform: none; widows: 2; word-spacing: 0px; -webkit-text-stroke-width: 0px; background-color: rgb(42, 42, 42); text-decoration-style: initial; text-decoration-color: initial; font-family: mathjax_main; padding-left: 0.222em;&quot;&gt;−&lt;b&gt;c&lt;/b&gt;&lt;/span&gt;&lt;span class=&quot;mo&quot; id=&quot;MathJax-Span-547&quot; style=&quot;color: rgb(240, 240, 240); font-size: 17px; font-style: normal; font-variant-ligatures: normal; font-variant-caps: normal; font-weight: 400; letter-spacing: normal; orphans: 2; text-align: left; text-indent: 0px; text-transform: none; widows: 2; word-spacing: 0px; -webkit-text-stroke-width: 0px; background-color: rgb(42, 42, 42); text-decoration-style: initial; text-decoration-color: initial; font-family: mathjax_main;&quot;&gt;)&lt;/span&gt;&lt;span class=&quot;mo&quot; id=&quot;MathJax-Span-548&quot; style=&quot;color: rgb(240, 240, 240); font-size: 17px; font-style: normal; font-variant-ligatures: normal; font-variant-caps: normal; font-weight: 400; letter-spacing: normal; orphans: 2; text-align: left; text-indent: 0px; text-transform: none; widows: 2; word-spacing: 0px; -webkit-text-stroke-width: 0px; background-color: rgb(42, 42, 42); text-decoration-style: initial; text-decoration-color: initial; font-family: mathjax_main; padding-left: 0.222em;&quot;&gt;⋅&lt;/span&gt;&lt;span class=&quot;mo&quot; id=&quot;MathJax-Span-549&quot; style=&quot;color: rgb(240, 240, 240); font-size: 17px; font-style: normal; font-variant-ligatures: normal; font-variant-caps: normal; font-weight: 400; letter-spacing: normal; orphans: 2; text-align: left; text-indent: 0px; text-transform: none; widows: 2; word-spacing: 0px; -webkit-text-stroke-width: 0px; background-color: rgb(42, 42, 42); text-decoration-style: initial; text-decoration-color: initial; font-family: mathjax_main; padding-left: 0.222em;&quot;&gt;(&lt;b&gt;a&lt;/b&gt;&lt;/span&gt;&lt;span class=&quot;mo&quot; id=&quot;MathJax-Span-553&quot; style=&quot;color: rgb(240, 240, 240); font-size: 17px; font-style: normal; font-variant-ligatures: normal; font-variant-caps: normal; font-weight: 400; letter-spacing: normal; orphans: 2; text-align: left; text-indent: 0px; text-transform: none; widows: 2; word-spacing: 0px; -webkit-text-stroke-width: 0px; background-color: rgb(42, 42, 42); text-decoration-style: initial; text-decoration-color: initial; font-family: mathjax_main; padding-left: 0.222em;&quot;&gt;−&lt;b&gt;c&lt;/b&gt;&lt;/span&gt;&lt;span class=&quot;mo&quot; id=&quot;MathJax-Span-557&quot; style=&quot;color: rgb(240, 240, 240); font-size: 17px; font-style: normal; font-variant-ligatures: normal; font-variant-caps: normal; font-weight: 400; letter-spacing: normal; orphans: 2; text-align: left; text-indent: 0px; text-transform: none; widows: 2; word-spacing: 0px; -webkit-text-stroke-width: 0px; background-color: rgb(42, 42, 42); text-decoration-style: initial; text-decoration-color: initial; font-family: mathjax_main;&quot;&gt;)&lt;/span&gt;&lt;span class=&quot;mo&quot; id=&quot;MathJax-Span-558&quot; style=&quot;color: rgb(240, 240, 240); font-size: 17px; font-style: normal; font-variant-ligatures: normal; font-variant-caps: normal; font-weight: 400; letter-spacing: normal; orphans: 2; text-align: left; text-indent: 0px; text-transform: none; widows: 2; word-spacing: 0px; -webkit-text-stroke-width: 0px; background-color: rgb(42, 42, 42); text-decoration-style: initial; text-decoration-color: initial; font-family: mathjax_main; padding-left: 0.222em;&quot;&gt;−&lt;/span&gt;&lt;span class=&quot;msubsup&quot; id=&quot;MathJax-Span-559&quot; style=&quot;color: rgb(240, 240, 240); font-family: Helvetica; font-size: 17px; font-style: normal; font-variant-ligatures: normal; font-variant-caps: normal; font-weight: 400; letter-spacing: normal; orphans: 2; text-align: left; text-indent: 0px; text-transform: none; widows: 2; word-spacing: 0px; -webkit-text-stroke-width: 0px; background-color: rgb(42, 42, 42); text-decoration-style: initial; text-decoration-color: initial; padding-left: 0.222em;&quot;&gt;&lt;span style=&quot;display: inline-block; position: relative; width: 0.88em; height: 0px;&quot;&gt;&lt;span style=&quot;position: absolute; clip: rect(3.412em, 1000.43em, 4.178em, -1000em); top: -4.01em; left: 0em;&quot;&gt;&lt;span class=&quot;mi&quot; id=&quot;MathJax-Span-560&quot; style=&quot;font-family: mathjax_math; font-style: italic;&quot;&gt;r&lt;/span&gt;&lt;span style=&quot;display: inline-block; width: 0px; height: 4.01em;&quot;&gt;&lt;/span&gt;&lt;/span&gt;&lt;span style=&quot;position: absolute; top: -4.423em; left: 0.451em;&quot;&gt;&lt;span class=&quot;mn&quot; id=&quot;MathJax-Span-561&quot; style=&quot;font-family: mathjax_main;&quot;&gt;2&lt;/span&gt;&lt;span style=&quot;display: inline-block; width: 0px; height: 4.01em;&quot;&gt;&lt;/span&gt;&lt;/span&gt;&lt;/span&gt;&lt;/span&gt;&lt;span class=&quot;mo&quot; id=&quot;MathJax-Span-562&quot; style=&quot;color: rgb(240, 240, 240); font-size: 17px; font-style: normal; font-variant-ligatures: normal; font-variant-caps: normal; font-weight: 400; letter-spacing: normal; orphans: 2; text-align: left; text-indent: 0px; text-transform: none; widows: 2; word-spacing: 0px; -webkit-text-stroke-width: 0px; background-color: rgb(42, 42, 42); text-decoration-style: initial; text-decoration-color: initial; font-family: mathjax_main; padding-left: 0.278em;&quot;&gt;&lt;br class=&quot;Apple-interchange-newline&quot;&gt;&lt;!--EndFragment--&gt;&#10;&#10;&lt;/span&gt;" style="text;whiteSpace=wrap;html=1;" vertex="1" parent="1">
                    <mxGeometry x="355" y="500" width="160" height="30" as="geometry"/>
                </mxCell>
                <mxCell id="51" value="&lt;span class=&quot;md&quot;&gt;&lt;span class=&quot;MathJax&quot; id=&quot;MathJax-Element-47-Frame&quot; tabindex=&quot;0&quot; style=&quot;position: relative&quot;&gt;&lt;nobr style=&quot;font-size: 26px&quot;&gt;&lt;span class=&quot;math&quot; id=&quot;MathJax-Span-510&quot; style=&quot;width: 27.919em ; display: inline-block&quot;&gt;&lt;span style=&quot;display: inline-block ; position: relative ; width: 23.229em ; height: 0px&quot;&gt;&lt;span style=&quot;position: absolute ; clip: rect(1.252em , 1023.19em , 2.698em , -1000em) ; top: -2.292em ; left: 0em&quot;&gt;&lt;span class=&quot;mrow&quot; id=&quot;MathJax-Span-511&quot;&gt;&lt;span class=&quot;mo&quot; style=&quot;padding-left: 0.278em&quot;&gt;&lt;font face=&quot;mathjax_math&quot; style=&quot;font-size: 26px&quot;&gt;ax² + bx + c&lt;/font&gt;&lt;/span&gt;&lt;span class=&quot;mo&quot; style=&quot;font-family: &amp;#34;mathjax_main&amp;#34; ; padding-left: 0.278em&quot;&gt;=&lt;/span&gt;&lt;span class=&quot;mn&quot; id=&quot;MathJax-Span-563&quot; style=&quot;font-family: &amp;#34;mathjax_main&amp;#34; ; padding-left: 0.278em&quot;&gt;0&lt;/span&gt;&lt;/span&gt;&lt;span style=&quot;display: inline-block ; width: 0px ; height: 2.292em&quot;&gt;&lt;/span&gt;&lt;/span&gt;&lt;/span&gt;&lt;span style=&quot;display: inline-block ; overflow: hidden ; vertical-align: -0.362em ; border-left: 0px solid ; width: 0px ; height: 1.486em&quot;&gt;&lt;/span&gt;&lt;/span&gt;&lt;/nobr&gt;&lt;/span&gt;&lt;/span&gt;" style="text;html=1;strokeColor=none;fillColor=none;align=left;verticalAlign=middle;whiteSpace=wrap;rounded=0;" vertex="1" parent="1">
                    <mxGeometry x="260.25" y="740" width="190" height="20" as="geometry"/>
                </mxCell>
                <mxCell id="61" style="edgeStyle=orthogonalEdgeStyle;rounded=0;orthogonalLoop=1;jettySize=auto;html=1;" edge="1" parent="1" source="52" target="55">
                    <mxGeometry relative="1" as="geometry"/>
                </mxCell>
                <mxCell id="52" value="" style="shape=partialRectangle;whiteSpace=wrap;html=1;bottom=1;right=1;left=1;top=0;fillColor=none;routingCenterX=-0.5;rotation=-180;" vertex="1" parent="1">
                    <mxGeometry x="265.25" y="730" width="40.5" height="10" as="geometry"/>
                </mxCell>
                <mxCell id="60" style="edgeStyle=orthogonalEdgeStyle;rounded=0;orthogonalLoop=1;jettySize=auto;html=1;" edge="1" parent="1" source="53" target="56">
                    <mxGeometry relative="1" as="geometry"/>
                </mxCell>
                <mxCell id="53" value="" style="shape=partialRectangle;whiteSpace=wrap;html=1;bottom=1;right=1;left=1;top=0;fillColor=none;routingCenterX=-0.5;rotation=-180;" vertex="1" parent="1">
                    <mxGeometry x="325.25" y="730" width="34.5" height="10" as="geometry"/>
                </mxCell>
                <mxCell id="59" style="edgeStyle=orthogonalEdgeStyle;rounded=0;orthogonalLoop=1;jettySize=auto;html=1;entryX=0.491;entryY=1.15;entryDx=0;entryDy=0;entryPerimeter=0;" edge="1" parent="1" source="54" target="58">
                    <mxGeometry relative="1" as="geometry"/>
                </mxCell>
                <mxCell id="54" value="" style="shape=partialRectangle;whiteSpace=wrap;html=1;bottom=1;right=1;left=1;top=0;fillColor=none;routingCenterX=-0.5;rotation=-180;" vertex="1" parent="1">
                    <mxGeometry x="376.25" y="730" width="24" height="10" as="geometry"/>
                </mxCell>
                <mxCell id="55" value="&lt;font style=&quot;font-size: 13px&quot;&gt;&lt;i&gt;LenSq&lt;/i&gt;(&lt;b&gt;b&lt;/b&gt;) * t²&lt;/font&gt;" style="text;html=1;align=center;verticalAlign=middle;resizable=0;points=[];autosize=1;" vertex="1" parent="1">
                    <mxGeometry x="241" y="680" width="90" height="20" as="geometry"/>
                </mxCell>
                <mxCell id="56" value="&lt;font style=&quot;font-size: 13px&quot;&gt;&lt;i&gt;Inner&lt;/i&gt;(2 *&amp;nbsp;&lt;b&gt;b &lt;/b&gt;* &lt;i&gt;t&lt;/i&gt;, (&lt;b&gt;a - c&lt;/b&gt;))&lt;/font&gt;" style="text;html=1;align=center;verticalAlign=middle;resizable=0;points=[];autosize=1;" vertex="1" parent="1">
                    <mxGeometry x="265.5" y="659" width="140" height="20" as="geometry"/>
                </mxCell>
                <mxCell id="58" value="&lt;span style=&quot;font-size: 13px&quot;&gt;&lt;i&gt;LenSq&lt;/i&gt;(&lt;b&gt;a - c&lt;/b&gt;) - r²&lt;/span&gt;" style="text;html=1;align=center;verticalAlign=middle;resizable=0;points=[];autosize=1;" vertex="1" parent="1">
                    <mxGeometry x="334.5" y="679" width="110" height="20" as="geometry"/>
                </mxCell>
                <mxCell id="74" value="&lt;font style=&quot;font-size: 16px&quot;&gt;&lt;i&gt;Inner&lt;/i&gt;(2b * t, (a-c)) =&lt;br&gt;&lt;/font&gt;&lt;font style=&quot;font-size: 16px&quot;&gt;&lt;i&gt;Inner&lt;/i&gt;(2b * t , vec) =&amp;nbsp;&lt;br&gt;(2b*t).x * vec.x + (2b*t).y * vec.y + (2b*t).z * vec.z =&lt;br&gt;t * (2b.x * vec.x) + t * (2b.y * vec.y) + t * (2b.z * vec.z) =&lt;br&gt;t * (2b.x * vec.x + 2b.y * vec.y + 2b.z * vec.z) =&amp;nbsp;&lt;br&gt;t * &lt;i&gt;Inner&lt;/i&gt;(2b, vec)&lt;br&gt;&lt;/font&gt;" style="text;html=1;align=left;verticalAlign=middle;resizable=0;points=[];autosize=1;" vertex="1" parent="1">
                    <mxGeometry x="533" y="639" width="400" height="100" as="geometry"/>
                </mxCell>
                <mxCell id="77" value="&lt;span class=&quot;md&quot;&gt;&lt;span class=&quot;MathJax&quot; id=&quot;MathJax-Element-47-Frame&quot; tabindex=&quot;0&quot; style=&quot;position: relative&quot;&gt;&lt;nobr style=&quot;font-size: 26px&quot;&gt;&lt;span class=&quot;math&quot; id=&quot;MathJax-Span-510&quot; style=&quot;width: 27.919em ; display: inline-block&quot;&gt;&lt;span style=&quot;display: inline-block ; position: relative ; width: 23.229em ; height: 0px&quot;&gt;&lt;span style=&quot;position: absolute ; clip: rect(1.252em , 1023.19em , 2.698em , -1000em) ; top: -2.292em ; left: 0em&quot;&gt;&lt;span class=&quot;mrow&quot; id=&quot;MathJax-Span-511&quot;&gt;&lt;span class=&quot;mo&quot; style=&quot;padding-left: 0.278em&quot;&gt;&lt;font face=&quot;mathjax_math&quot; style=&quot;font-size: 26px&quot;&gt;ax² + bx + c&lt;/font&gt;&lt;/span&gt;&lt;span class=&quot;mo&quot; style=&quot;font-family: &amp;#34;mathjax_main&amp;#34; ; padding-left: 0.278em&quot;&gt;=&lt;/span&gt;&lt;span class=&quot;mn&quot; id=&quot;MathJax-Span-563&quot; style=&quot;font-family: &amp;#34;mathjax_main&amp;#34; ; padding-left: 0.278em&quot;&gt;0&lt;/span&gt;&lt;/span&gt;&lt;span style=&quot;display: inline-block ; width: 0px ; height: 2.292em&quot;&gt;&lt;/span&gt;&lt;/span&gt;&lt;/span&gt;&lt;span style=&quot;display: inline-block ; overflow: hidden ; vertical-align: -0.362em ; border-left: 0px solid ; width: 0px ; height: 1.486em&quot;&gt;&lt;/span&gt;&lt;/span&gt;&lt;/nobr&gt;&lt;/span&gt;&lt;/span&gt;" style="text;html=1;strokeColor=none;fillColor=none;align=left;verticalAlign=middle;whiteSpace=wrap;rounded=0;" vertex="1" parent="1">
                    <mxGeometry x="279.5" y="861" width="190" height="20" as="geometry"/>
                </mxCell>
                <mxCell id="78" style="edgeStyle=orthogonalEdgeStyle;rounded=0;orthogonalLoop=1;jettySize=auto;html=1;" edge="1" parent="1" source="79" target="84">
                    <mxGeometry relative="1" as="geometry"/>
                </mxCell>
                <mxCell id="79" value="" style="shape=partialRectangle;whiteSpace=wrap;html=1;bottom=1;right=1;left=1;top=0;fillColor=none;routingCenterX=-0.5;rotation=-180;" vertex="1" parent="1">
                    <mxGeometry x="287.5" y="851" width="14" height="10" as="geometry"/>
                </mxCell>
                <mxCell id="80" style="edgeStyle=orthogonalEdgeStyle;rounded=0;orthogonalLoop=1;jettySize=auto;html=1;" edge="1" parent="1" source="81" target="85">
                    <mxGeometry relative="1" as="geometry"/>
                </mxCell>
                <mxCell id="81" value="" style="shape=partialRectangle;whiteSpace=wrap;html=1;bottom=1;right=1;left=1;top=0;fillColor=none;routingCenterX=-0.5;rotation=-180;" vertex="1" parent="1">
                    <mxGeometry x="347.5" y="851" width="13.5" height="10" as="geometry"/>
                </mxCell>
                <mxCell id="82" style="edgeStyle=orthogonalEdgeStyle;rounded=0;orthogonalLoop=1;jettySize=auto;html=1;entryX=0.491;entryY=1.15;entryDx=0;entryDy=0;entryPerimeter=0;" edge="1" parent="1" source="83" target="86">
                    <mxGeometry relative="1" as="geometry"/>
                </mxCell>
                <mxCell id="83" value="" style="shape=partialRectangle;whiteSpace=wrap;html=1;bottom=1;right=1;left=1;top=0;fillColor=none;routingCenterX=-0.5;rotation=-180;" vertex="1" parent="1">
                    <mxGeometry x="399.5" y="851" width="15" height="10" as="geometry"/>
                </mxCell>
                <mxCell id="84" value="&lt;font style=&quot;font-size: 13px&quot;&gt;&lt;i&gt;LenSq&lt;/i&gt;(&lt;b&gt;b&lt;/b&gt;)&lt;/font&gt;" style="text;html=1;align=center;verticalAlign=middle;resizable=0;points=[];autosize=1;" vertex="1" parent="1">
                    <mxGeometry x="259" y="800" width="70" height="20" as="geometry"/>
                </mxCell>
                <mxCell id="85" value="&lt;font style=&quot;font-size: 13px&quot;&gt;&lt;i&gt;Inner&lt;/i&gt;(2&lt;b&gt;b&lt;/b&gt;, (&lt;b&gt;a - c&lt;/b&gt;))&lt;/font&gt;" style="text;html=1;align=center;verticalAlign=middle;resizable=0;points=[];autosize=1;" vertex="1" parent="1">
                    <mxGeometry x="299" y="780" width="110" height="20" as="geometry"/>
                </mxCell>
                <mxCell id="86" value="&lt;span style=&quot;font-size: 13px&quot;&gt;&lt;i&gt;LenSq&lt;/i&gt;(&lt;b&gt;a - c&lt;/b&gt;) - r²&lt;/span&gt;" style="text;html=1;align=center;verticalAlign=middle;resizable=0;points=[];autosize=1;" vertex="1" parent="1">
                    <mxGeometry x="353.75" y="800" width="110" height="20" as="geometry"/>
                </mxCell>
                <mxCell id="115" value="&lt;div style=&quot;font-size: 14px;&quot;&gt;&lt;span style=&quot;font-size: 14px;&quot;&gt;$$x = {-b \pm \sqrt{b^2-4ac} \over 2a}$$&lt;/span&gt;&lt;br style=&quot;font-size: 14px;&quot;&gt;&lt;/div&gt;" style="text;html=1;align=left;verticalAlign=middle;resizable=0;points=[];autosize=1;fontSize=14;fontStyle=1" vertex="1" parent="1">
                    <mxGeometry x="280" y="940" width="280" height="20" as="geometry"/>
                </mxCell>
                <mxCell id="117" value="&lt;div style=&quot;font-size: 14px;&quot;&gt;&lt;span style=&quot;font-size: 14px;&quot;&gt;$$D = b^2 - 4ac$$&lt;/span&gt;&lt;/div&gt;&lt;div style=&quot;font-size: 14px;&quot;&gt;&lt;span style=&quot;font-size: 14px;&quot;&gt;$$x = {-b \pm \sqrt{D} \over 2a}$$&lt;/span&gt;&lt;br style=&quot;font-size: 14px;&quot;&gt;&lt;/div&gt;" style="text;html=1;align=left;verticalAlign=middle;resizable=0;points=[];autosize=1;fontSize=14;fontStyle=1" vertex="1" parent="1">
                    <mxGeometry x="280" y="1020" width="240" height="40" as="geometry"/>
                </mxCell>
                <mxCell id="118" value="&lt;div style=&quot;font-size: 14px&quot;&gt;&lt;span style=&quot;font-size: 14px&quot;&gt;$$2h = b$$&lt;/span&gt;&lt;/div&gt;&lt;div style=&quot;font-size: 14px&quot;&gt;&lt;span style=&quot;font-size: 14px&quot;&gt;$$D = h^2 - ac$$&lt;/span&gt;&lt;/div&gt;&lt;div style=&quot;font-size: 14px&quot;&gt;&lt;span style=&quot;font-size: 14px&quot;&gt;$$x = {-h \pm \sqrt{D} \over a}$$&lt;/span&gt;&lt;/div&gt;&lt;div style=&quot;font-size: 14px&quot;&gt;&lt;span style=&quot;font-size: 14px&quot;&gt;$$x = {-h \pm 1 \over a}$$&lt;/span&gt;&lt;/div&gt;" style="text;html=1;align=left;verticalAlign=middle;resizable=0;points=[];autosize=1;fontSize=14;fontStyle=1" vertex="1" parent="1">
                    <mxGeometry x="280" y="1130" width="230" height="70" as="geometry"/>
                </mxCell>
            </root>
        </mxGraphModel>
    </diagram>
</mxfile>